<svg xmlns="http://www.w3.org/2000/svg" width="1200" height="630" viewBox="0 0 1200 630">
  <rect width="1200" height="630" fill="#f8fafc"/>
  <rect x="0" y="0" width="1200" height="630" fill="url(#grid)" opacity="0.03"/>
  <defs>
    <pattern id="grid" width="40" height="40" patternUnits="userSpaceOnUse">
      <rect width="40" height="40" fill="none" stroke="#0f172a" strokeWidth="0.5"/>
    </pattern>
    <linearGradient id="leaf" x1="0%" y1="0%" x2="100%" y2="100%">
      <stop offset="0%" stop-color="#47A248"/>
      <stop offset="100%" stop-color="#2d7231"/>
    </linearGradient>
  </defs>
  <g transform="translate(140, 150)">
    <path fill="url(#leaf)" d="M71.637 40.04c-5.28-23.34-17.78-31-19.12-36.57-.19-.88-.47-1.74-.82-2.55-.25-.64-.55-1.36-.63-2.17v-.08c-.1-1.03-.38-2.4-.38-2.4l-.32-1.28s-1.38.66-1.56 1.34c-.27.99-.27 1.99-.04 2.99.3 1.39.78 2.74 1.42 4.02.23.47.47.93.71 1.4-4.34 4.3-8.66 9.24-12.07 14.33-6.65 9.95-11 21.98-11 33.13 0 19.12 13.38 31.17 25.6 35.28 2.19.75 3.65 1.26 3.65 1.26l.21-.11c2.83 1.32 6.03 2.26 9.38 2.76l.61.07c1.56.14 3.13.21 4.69.21s3.13-.07 4.69-.21l.61-.07c3.35-.5 6.55-1.44 9.38-2.76l.21.11s1.46-.51 3.65-1.26c12.22-4.11 25.6-16.16 25.6-35.28 0-11.14-4.53-22.99-11.17-32.95-3.4-5.09-7.73-10.04-12.07-14.33z"/>
  </g>
  <text x="240" y="300" font-family="'Inter', system-ui, -apple-system, sans-serif" font-size="52" font-weight="800" fill="#0f172a" letter-spacing="-1">MongoDB Easy</text>
  <text x="240" y="370" font-family="'Inter', system-ui, -apple-system, sans-serif" font-size="24" fill="#64748b" font-weight="400">Learn MongoDB in your browser</text>
  <rect x="240" y="420" width="280" height="48" rx="8" fill="#47A248"/>
  <text x="380" y="452" font-family="'Inter', system-ui, -apple-system, sans-serif" font-size="18" fill="white" font-weight="600" text-anchor="middle">31 free lessons →</text>
  <text x="240" y="530" font-family="'Inter', system-ui, -apple-system, sans-serif" font-size="16" fill="#94a3b8">No signup • In-browser query engine • Instant feedback</text>
</svg>
