<svg xmlns="http://www.w3.org/2000/svg" width="1200" height="630" viewBox="0 0 1200 630">
  <rect width="1200" height="630" fill="#f8fafc"/>
  <rect x="0" y="0" width="1200" height="630" fill="url(#grid)" opacity="0.03"/>
  <defs>
    <pattern id="grid" width="40" height="40" patternUnits="userSpaceOnUse">
      <rect width="40" height="40" fill="none" stroke="#0f172a" strokeWidth="0.5"/>
    </pattern>
  </defs>
  <g transform="translate(100, 115) scale(4.8)">
    <path fill="#47A248" d="M17.193 9.555c-1.264-5.58-4.252-7.414-4.573-8.745-.045-.21-.112-.417-.197-.61-.06-.153-.132-.324-.15-.518v-.019c-.023-.246-.09-.575-.09-.575l-.076-.305s-.33.157-.374.32c-.065.237-.064.476-.008.714.07.333.187.655.34.961.055.112.112.223.17.334-1.038 1.028-2.072 2.21-2.886 3.428-1.59 2.38-2.63 5.256-2.63 7.92 0 4.572 3.2 7.452 6.12 8.437.524.178.874.3.874.3l.05-.026c.677.315 1.443.54 2.243.66l.146.016c.374.033.748.05 1.122.05.374 0 .748-.017 1.122-.05l.146-.016c.8-.12 1.566-.345 2.242-.66l.05.025s.35-.12.875-.3c2.92-.985 6.12-3.865 6.12-8.437 0-2.664-1.082-5.498-2.67-7.878-.814-1.217-1.848-2.4-2.886-3.428z"/>
  </g>
  <text x="240" y="300" font-family="'Inter', system-ui, -apple-system, sans-serif" font-size="52" font-weight="800" fill="#0f172a" letter-spacing="-1">Mongeesy</text>
  <text x="240" y="370" font-family="'Inter', system-ui, -apple-system, sans-serif" font-size="24" fill="#64748b" font-weight="400">Learn MongoDB queries in your browser</text>
  <rect x="240" y="420" width="280" height="48" rx="8" fill="#47A248"/>
  <text x="380" y="452" font-family="'Inter', system-ui, -apple-system, sans-serif" font-size="18" fill="white" font-weight="600" text-anchor="middle">35 free lessons →</text>
  <text x="240" y="530" font-family="'Inter', system-ui, -apple-system, sans-serif" font-size="16" fill="#94a3b8">No signup • In-browser query engine • Instant feedback</text>
</svg>
